#define logo_width 16
#define logo_height 16
static unsigned char logo_bits[] = {
   0x00, 0x00, 0x00, 0x00, 0x80, 0x3f, 0xc0, 0x3f, 0xc0, 0x07, 0xc0, 0x0f,
   0xc0, 0x0e, 0xc0, 0x0f, 0xa0, 0x0f, 0xe8, 0x0f, 0x58, 0x0f, 0x60, 0x0d,
   0x80, 0x03, 0x00, 0x00, 0x00, 0x00, 0x00, 0x00 };
